<?xml version="1.0" encoding="UTF-8"?>
<svg id="Ebene_1" data-name="Ebene 1" xmlns="http://www.w3.org/2000/svg" xmlns:xlink="http://www.w3.org/1999/xlink" viewBox="0 0 1277.48 300">
  <defs>
    <linearGradient id="Unbenannter_Verlauf_82" data-name="Unbenannter Verlauf 82" x1="15.51" y1="15.51" x2="284.49" y2="284.49" gradientUnits="userSpaceOnUse">
      <stop offset="0" stop-color="#fc4c02"/>
      <stop offset="1" stop-color="#ff8a3d"/>
    </linearGradient>
  </defs>
  <g>
    <rect width="300" height="300" rx="52.8" ry="52.8" fill="url(#Unbenannter_Verlauf_82)"/>
    <path d="M205.92,131.81c-3.16-9.55-8.51-25.76-10.98-33.25h19.52c1.51,0,2.73,1.22,2.73,2.73s-1.22,2.73-2.73,2.73h-4.41c-3.71,0-6.72,3.01-6.72,6.72s3.01,6.72,6.72,6.72h4.41c8.92,0,16.17-7.25,16.17-16.17s-7.25-16.17-16.17-16.17h-28.82c-4.57,0-7.82,4.48-6.38,8.83l7.49,22.67h-69.08l-3.37-8.82h3.78c3.71,0,6.72-3.01,6.72-6.72s-3.01-6.72-6.72-6.72h-21c-3.71,0-6.72,3.01-6.72,6.72s3.01,6.72,6.72,6.72h2.84l5.78,15.14-5.43,10.58c-26.86-8.68-54.42,11.64-54.42,39.68,0,22.91,18.77,41.68,41.68,41.68,20.66,0,37.85-15.1,41.12-34.85h19.27c2.65,0,5.06-1.56,6.14-3.99l20.46-45.99h16.67l1.96,5.95c-13.4,6.97-22.58,20.98-22.58,37.1,0,23.04,18.74,41.78,41.78,41.78s41.78-18.74,41.78-41.78c0-25.46-22.77-45.25-48.23-41.29ZM87.54,201.44c-15.57,0-28.24-12.67-28.24-28.24,0-18.09,16.91-31.68,34.72-27.49l-12.59,24.53c-2.29,4.46.96,9.79,5.98,9.79h27.54c-3.06,12.28-14.19,21.41-27.4,21.41h0ZM114.99,166.59h-16.59l7.58-14.76c4.4,3.8,7.61,8.93,9.02,14.76ZM143.56,166.59h-14.87c-1.78-11.07-7.92-20.57-16.48-26.92l4.93-9.61h42.66l-16.25,36.54ZM212.36,201.44c-15.63,0-28.35-12.72-28.35-28.35,0-10.16,5.38-19.09,13.43-24.09l8.63,26.14c.93,2.82,3.56,4.61,6.38,4.61,4.56,0,7.82-4.47,6.38-8.83l-8.62-26.09c16.58-1.24,30.48,11.92,30.48,28.26s-12.72,28.35-28.35,28.35h0Z" fill="#fff"/>
  </g>
  <g>
    <path d="M437.16,155.6c5.13-7.33,7.7-16.15,7.7-26.47,0-6.9-1.11-13.16-3.34-18.77-2.22-5.61-5.69-10.28-10.39-13.98-4.7-3.71-10.73-6.13-18.09-7.27-1.6-.28-3.41-.47-5.43-.56-2.02-.09-3.63-.13-4.83-.13h-52v123.15h23.26v-41.73h25.96l20.23,41.73h26.34l-22.24-45.62c5.38-2.38,9.66-5.83,12.83-10.36ZM374.04,110.15h27.71c1.2,0,2.51.06,3.93.17,1.42.11,2.74.34,3.93.68,3.14.86,5.56,2.3,7.27,4.32,1.71,2.02,2.89,4.28,3.55,6.76.65,2.48.98,4.83.98,7.06s-.33,4.58-.98,7.06c-.66,2.48-1.84,4.73-3.55,6.76-1.71,2.02-4.13,3.46-7.27,4.32-1.2.34-2.51.57-3.93.68-1.43.11-2.74.17-3.93.17h-27.71v-37.97Z" fill="#111827"/>
    <rect x="458.54" y="85.86" width="23.26" height="20.53" fill="#111827"/>
    <rect x="458.54" y="119.21" width="23.26" height="92.36" fill="#111827"/>
    <path d="M558.42,122.19c-5.75-3.7-12.7-5.55-20.87-5.55-8.84,0-16.54,2.11-23.09,6.33-6.56,4.22-11.65,9.99-15.27,17.32-3.62,7.33-5.43,15.69-5.43,25.1s1.78,17.53,5.35,24.89c3.56,7.35,8.54,13.17,14.92,17.45,6.38,4.28,13.82,6.41,22.32,6.41,9.18,0,16.85-2.14,23.01-6.41.68-.47,1.33-.97,1.97-1.47v5.32h20.53v-123.15h-23.43v33.77ZM559.28,180.1c-1.37,4.22-3.61,7.5-6.71,9.83-3.11,2.34-7.26,3.51-12.44,3.51s-9.12-1.25-12.32-3.76c-3.19-2.51-5.56-5.89-7.1-10.13-1.54-4.25-2.31-8.96-2.31-14.15s.8-9.82,2.39-14.07c1.6-4.25,4.06-7.64,7.4-10.18,3.34-2.54,7.6-3.81,12.79-3.81,4.84,0,8.77,1.17,11.76,3.51,2.99,2.34,5.17,5.62,6.54,9.83,1.37,4.22,2.05,9.12,2.05,14.71s-.68,10.49-2.05,14.71Z" fill="#111827"/>
    <path d="M663.53,123.49c-6.79-4.56-15.02-6.84-24.72-6.84-9.12,0-17.19,2.07-24.2,6.2-7.01,4.13-12.52,9.94-16.51,17.4-3.99,7.47-5.99,16.25-5.99,26.34,0,9.24,2.04,17.43,6.12,24.59,4.08,7.16,9.72,12.77,16.93,16.85,7.21,4.08,15.55,6.11,25.02,6.11,8.89,0,17.09-2.34,24.59-7.01,7.5-4.67,12.98-11.23,16.46-19.67l-23.26-6.67c-1.71,3.76-4.19,6.64-7.44,8.64-3.25,2-7.16,2.99-11.72,2.99-7.24,0-12.73-2.35-16.46-7.06-2.73-3.44-4.45-7.94-5.19-13.47h64.84c.97-11.17-.17-20.9-3.42-29.16-3.25-8.27-8.27-14.68-15.05-19.24ZM639.84,136.83c6.78,0,11.67,2.07,14.67,6.2,1.97,2.72,3.29,6.59,3.96,11.59h-40.7c.91-4.27,2.44-7.8,4.58-10.56,3.73-4.82,9.56-7.23,17.49-7.23Z" fill="#111827"/>
    <polygon points="795.49 173.09 772.4 88.42 747.94 88.6 724.85 173.09 701.76 88.42 677.3 88.42 713.39 211.58 736.31 211.58 760.17 128.45 784.03 211.58 806.95 211.58 843.04 88.42 818.58 88.42 795.49 173.09" fill="#111827"/>
    <path d="M894.01,119c-2.79.2-5.5.68-8.12,1.45-2.62.77-5.05,1.84-7.27,3.21-2.91,1.71-5.36,3.88-7.35,6.5-.95,1.25-1.8,2.56-2.57,3.93v-14.88h-20.53v92.36h23.43v-47.21c0-3.53.48-6.71,1.45-9.54.97-2.82,2.4-5.27,4.28-7.35,1.88-2.08,4.19-3.75,6.93-5,2.74-1.31,5.8-2.1,9.19-2.35,3.39-.26,6.37.01,8.94.81v-21.72c-2.79-.34-5.59-.41-8.38-.21Z" fill="#111827"/>
    <path d="M974.65,123.49c-6.79-4.56-15.02-6.84-24.72-6.84-9.12,0-17.19,2.07-24.2,6.2-7.01,4.13-12.52,9.94-16.51,17.4-3.99,7.47-5.99,16.25-5.99,26.34,0,9.24,2.04,17.43,6.12,24.59,4.08,7.16,9.72,12.77,16.93,16.85,7.21,4.08,15.55,6.11,25.02,6.11,8.89,0,17.09-2.34,24.59-7.01,7.5-4.67,12.98-11.23,16.46-19.67l-23.26-6.67c-1.71,3.76-4.19,6.64-7.44,8.64-3.25,2-7.16,2.99-11.72,2.99-7.24,0-12.73-2.35-16.46-7.06-2.73-3.44-4.45-7.94-5.19-13.47h64.84c.97-11.17-.17-20.9-3.42-29.16-3.25-8.27-8.27-14.68-15.05-19.24ZM950.96,136.83c6.78,0,11.67,2.07,14.67,6.2,1.97,2.72,3.29,6.59,3.96,11.59h-40.7c.91-4.27,2.44-7.8,4.58-10.56,3.73-4.82,9.56-7.23,17.49-7.23Z" fill="#111827"/>
    <path d="M1085.49,141.23c-1.08-4.08-2.89-8-5.43-11.76-2.54-3.76-6.09-6.87-10.65-9.32-4.56-2.45-10.46-3.68-17.7-3.68-9.06,0-16.58,1.97-22.53,5.9-2.8,1.85-5.26,3.98-7.4,6.37v-9.54h-20.7v92.36h23.6v-46.87c0-5.76.64-10.38,1.92-13.85,1.28-3.48,2.92-6.11,4.92-7.91,1.99-1.8,4.13-3.01,6.41-3.63,2.28-.63,4.42-.94,6.41-.94,4.96,0,8.79,1.11,11.5,3.34,2.71,2.22,4.66,4.99,5.86,8.3,1.2,3.31,1.91,6.6,2.14,9.88.23,3.28.34,5.97.34,8.08v43.62h23.6v-51.83c0-1.54-.12-3.99-.34-7.35-.23-3.36-.88-7.08-1.97-11.16Z" fill="#111827"/>
    <path d="M1128.42,141.92c3.14-2.37,7.15-3.55,12.06-3.55,4.28,0,8.11,1.34,11.5,4.02,3.39,2.68,5.77,6.41,7.14,11.2l23.26-6.16c-2.05-9.52-6.77-17.03-14.15-22.54-7.38-5.5-16.52-8.25-27.41-8.25-9.41,0-17.56,2.11-24.46,6.33-6.9,4.22-12.24,10.01-16.04,17.36-3.79,7.35-5.69,15.71-5.69,25.06s1.82,17.53,5.47,24.89c3.65,7.35,8.89,13.17,15.74,17.45s15.05,6.41,24.63,6.41c10.72,0,19.73-2.65,27.03-7.95,7.3-5.3,12.26-12.86,14.88-22.66l-23.77-4.96c-1.37,4.45-3.42,7.87-6.16,10.26-2.74,2.39-6.73,3.59-11.97,3.59-7.01,0-12.3-2.49-15.86-7.48-3.56-4.99-5.35-11.5-5.35-19.54,0-5.13.74-9.73,2.22-13.81,1.48-4.08,3.79-7.3,6.93-9.66Z" fill="#111827"/>
    <path d="M1277.14,152.39c-.23-3.36-.88-7.08-1.97-11.16-1.08-4.08-2.89-8-5.43-11.76-2.54-3.76-6.09-6.87-10.65-9.32-4.56-2.45-10.46-3.68-17.7-3.68-9.06,0-16.58,1.97-22.53,5.9-2.8,1.85-5.26,3.98-7.4,6.37v-40.32h-20.7v123.15h23.6v-46.87c0-5.76.64-10.38,1.92-13.85,1.28-3.48,2.92-6.11,4.92-7.91,1.99-1.8,4.13-3.01,6.41-3.63,2.28-.63,4.42-.94,6.41-.94,4.96,0,8.79,1.11,11.5,3.34,2.71,2.22,4.66,4.99,5.86,8.3,1.2,3.31,1.91,6.6,2.14,9.88.23,3.28.34,5.97.34,8.08v43.62h23.6v-51.83c0-1.54-.12-3.99-.34-7.35Z" fill="#111827"/>
  </g>
</svg>